<?xml version="1.0" encoding="UTF-8"?>
<svg id="Capa_1" data-name="Capa 1" xmlns="http://www.w3.org/2000/svg" viewBox="0 0 2000 2000">
  <defs>
    <style>
      .cls-1 {
        fill: #f7d749;
      }

      .cls-2 {
        fill: #f1dc58;
      }

      .cls-3 {
        fill: #fff;
      }

      .cls-4 {
        fill: #f1a43b;
      }

      .cls-5 {
        fill: #d88c30;
      }

      .cls-6 {
        fill: #06196a;
      }

      .cls-7 {
        fill: #e2c447;
      }

      .cls-8 {
        fill: #a4d342;
      }

      .cls-9 {
        fill: #87b21d;
      }
    </style>
  </defs>
  <g>
    <g>
      <path class="cls-4" d="M555.36,1846.04h-32.08l-6.28-12.33h-58.56l-6.28,12.33h-32.08l42.35-79.91h50.57l42.35,79.91ZM505.37,1811l-10.5-20.55h-14.27l-10.5,20.55h35.27Z"/>
      <path class="cls-4" d="M683.79,1788.74v34.7c0,15.41-6.51,22.6-19.75,22.6h-98.85v-79.91h98.85c13.24,0,19.75,7.19,19.75,22.6ZM655.25,1798.44c0-6.05-1.94-7.99-7.99-7.99h-53.54v31.28h53.54c6.05,0,7.99-1.94,7.99-7.99v-15.3Z"/>
      <path class="cls-4" d="M825.22,1766.13l-42.35,79.91h-50.57l-42.35-79.91h32.08l28.42,55.59h14.27l28.42-55.59h32.08Z"/>
      <path class="cls-4" d="M940.41,1823.1v22.94h-105.36v-79.91h104.33v22.94h-75.8v6.51h60.96v21h-60.96v6.51h76.82Z"/>
      <path class="cls-4" d="M1072.71,1766.13v79.91h-34.36l-55.71-55.59v55.59h-28.54v-79.91h39.15l50.91,50.8v-50.8h28.54Z"/>
      <path class="cls-4" d="M1125.68,1790.45h-41.55v-24.31h111.64v24.31h-41.55v55.59h-28.54v-55.59Z"/>
      <path class="cls-4" d="M1206.73,1823.44v-57.3h28.54v47.6c0,6.05,1.94,7.99,7.99,7.99h45.55c6.05,0,7.99-1.94,7.99-7.99v-47.6h28.54v57.3c0,15.41-6.51,22.6-19.75,22.6h-79.11c-13.24,0-19.75-7.19-19.75-22.6Z"/>
      <path class="cls-4" d="M1458.67,1846.04h-36.3l-22.6-22.94h-30.36v22.94h-28.54v-79.91h96.69c13.24,0,19.75,7.19,19.75,22.6v10.73c0,15.3-6.51,22.6-19.75,22.6h-4.45l25.57,23.97ZM1428.76,1793.99c0-2.17-.8-2.85-3.54-2.85h-55.82v6.96h55.82c2.74,0,3.54-.69,3.54-2.85v-1.26Z"/>
      <path class="cls-4" d="M1577.05,1823.1v22.94h-105.36v-79.91h104.33v22.94h-75.8v6.51h60.96v21h-60.96v6.51h76.82Z"/>
    </g>
    <g>
      <path class="cls-6" d="M749.97,1335.93l-41.76,123.35h-67.14l-32.25-85.81h-7.05l-32.25,85.81h-67.14l-41.76-123.35h46.7l27.84,85.81h7.93l30.48-85.81h63.44l30.48,85.81h7.93l28.02-85.81h46.52Z"/>
      <path class="cls-6" d="M945.91,1370.82v53.57c0,23.79-10.04,34.89-30.48,34.89h-122.11c-20.44,0-30.48-11.1-30.48-34.89v-53.57c0-23.79,10.04-34.89,30.48-34.89h122.11c20.44,0,30.48,11.1,30.48,34.89ZM901.86,1385.8c0-9.34-3-12.33-12.33-12.33h-70.31c-9.34,0-12.33,3-12.33,12.33v23.61c0,9.34,3,12.33,12.33,12.33h70.31c9.34,0,12.33-3,12.33-12.33v-23.61Z"/>
      <path class="cls-6" d="M1151.01,1459.28h-56.03l-34.89-35.42h-46.87v35.42h-44.05v-123.35h149.25c20.44,0,30.48,11.1,30.48,34.89v16.56c0,23.61-10.04,34.89-30.48,34.89h-6.87l39.47,37ZM1104.85,1378.93c0-3.35-1.23-4.41-5.46-4.41h-86.17v10.75h86.17c4.23,0,5.46-1.06,5.46-4.4v-1.94Z"/>
      <path class="cls-6" d="M1332.15,1423.86v35.42h-161.05v-123.35h44.05v87.93h117Z"/>
      <path class="cls-6" d="M1532.85,1370.82v53.57c0,23.79-10.04,34.89-30.48,34.89h-152.6v-123.35h152.6c20.44,0,30.48,11.1,30.48,34.89ZM1488.79,1385.8c0-9.34-3-12.33-12.33-12.33h-82.64v48.28h82.64c9.34,0,12.33-3,12.33-12.33v-23.61Z"/>
    </g>
    <g>
      <path class="cls-6" d="M711.78,1594.04v-5.88c0-17.31-5.55-22.86-22.86-22.86h-130.31c-17.31,0-22.86,5.55-22.86,22.86v43.76c0,17.31,5.55,22.86,22.86,22.86h130.31c17.31,0,22.86-5.55,22.86-22.86v-5.88h81.65v33.64c0,44.09-18.62,64.66-56.5,64.66h-226.32c-37.88,0-56.5-20.57-56.5-64.66v-99.28c0-44.09,18.62-64.66,56.5-64.66h226.32c41.8,0,56.5,25.8,56.5,64.66v33.64h-81.65Z"/>
      <path class="cls-6" d="M834.25,1659.68v-163.95h81.65v136.19c0,17.31,5.55,22.86,22.86,22.86h130.31c17.31,0,22.86-5.55,22.86-22.86v-136.19h81.65v163.95c0,44.09-18.62,64.66-56.5,64.66h-226.32c-37.88,0-56.5-20.57-56.5-64.66Z"/>
      <path class="cls-6" d="M1551.11,1560.4v33.64c0,44.09-18.62,64.66-56.5,64.66h-194.97v65.64h-81.65v-228.61h276.62c37.88,0,56.5,20.58,56.5,64.66ZM1469.46,1575.42c0-6.21-2.29-8.16-10.12-8.16h-159.7v19.92h159.7c7.84,0,10.12-1.96,10.12-8.16v-3.59Z"/>
    </g>
  </g>
  <g>
    <path id="path626" class="cls-6" d="M1150.75,836.2h-301.5c-83.26,0-150.75,67.49-150.75,150.75v150.75c0,83.26,67.49,150.75,150.75,150.75h301.5c83.26,0,150.75-67.49,150.75-150.75s-67.49-150.75-150.75-150.75h150.75c0-83.26-67.49-150.75-150.75-150.75M1150.75,358.12h-301.5c-83.26,0-150.75,67.49-150.75,150.75h150.75c-83.26,0-150.75,67.49-150.75,150.75v150.75h603v-150.75h-150.75c83.26,0,150.75-67.49,150.75-150.75s-67.49-150.75-150.75-150.75"/>
    <path class="cls-3" d="M1000.11,1173.74c-47.7,0-75.18-.09-91.87-.32-9.04-.12-15.2-.28-19.37-.5-5.95-.31-14.09-.74-18.9-8.57l-4.81-7.82,4.14-8.31h0c.18-.36.81-1.57,1.73-3.35,1.48-2.85,3.76-7.25,6.17-11.92,19.71-38.35,34.15-84.58,41.76-133.69,1.55-9.98,2.35-29.34,2.09-50.52-.26-20.83-1.48-38.87-3.19-47.07-3.62-17.34-7.45-30.53-13.21-45.51-6.65-17.29-15.44-35.79-28.36-61.91-9.62-19.44-19.28-40.2-22.96-49.36-14.81-36.81-24.19-74.94-27.15-110.26-2.51-29.96,1.78-51.36,15.29-76.32,15.48-28.6,40.85-51.77,73.39-67,31.93-14.95,67.5-21.01,102.86-17.53,36.94,3.64,70.6,15.75,97.34,35.04,27.47,19.81,46.8,46.98,55.91,78.57,3.54,12.26,3.76,18.85,3.14,39.58-.56,18.61-2.13,32.76-5.26,47.31-3.18,14.76-8.15,30.66-16.12,51.55-3.64,9.55-10.42,24.68-19.08,42.61-8.94,18.5-19.47,39.12-26.73,53.16-15.96,30.85-25.1,59.56-29.65,93.09-1.21,8.92-1.53,25.22-.85,43.6.69,18.6,2.27,36.08,4.23,46.74,3.97,21.51,9.68,44.05,16.53,65.19,6.92,21.36,14.83,40.88,23.52,58.03,4.41,8.7,8.41,16.45,9.73,19.02l4.66,9.06-4.81,7.98c-4.8,7.87-12.97,8.3-18.93,8.62-4.17.22-10.33.38-19.37.5-16.69.22-44.16.32-91.86.32ZM883.96,1155.63l14.68,7.41-14.68-7.41ZM910.13,1140.57c21.62.26,55.65.3,89.97.3s68.35-.03,89.97-.3c-8.96-18.04-17.09-38.28-24.19-60.22-7.28-22.48-13.36-46.47-17.58-69.36-2.27-12.32-4.01-31.09-4.76-51.49-.75-20.45-.34-38.39,1.13-49.23,5.07-37.42,15.26-69.43,33.02-103.77,7.17-13.86,17.55-34.19,26.33-52.36,8.26-17.1,14.64-31.31,17.96-40.02,7.35-19.27,11.88-33.69,14.69-46.75,2.69-12.49,4.05-24.87,4.54-41.38.6-20.07.15-22.49-1.87-29.48-7.05-24.45-22.11-45.55-43.56-61.01-22.03-15.89-50.16-25.92-81.33-28.98-29.49-2.91-59.12,2.14-85.7,14.59-26.12,12.23-46.32,30.51-58.42,52.88-10.55,19.49-13.44,34.11-11.44,57.93,2.69,32.1,11.29,66.93,24.89,100.73,2.85,7.1,11.51,26,21.93,47.05,13.35,26.98,22.47,46.21,29.58,64.68,6.44,16.74,10.71,31.4,14.71,50.59,3.1,14.82,3.75,42.27,3.88,53.39.29,23.22-.64,44.14-2.47,55.96-7.67,49.45-21.9,96.36-41.3,136.26Z"/>
    <path class="cls-3" d="M1116.81,1173.74h-233.41c-5.92,0-11.38-3.18-14.3-8.33-2.92-5.15-2.85-11.47.19-16.55l2.1-3.57c1.28-2.36,2.55-4.72,3.83-7.1,4.62-8.63,9.12-18.14,13.39-28.26l.91-2.29c.69-1.76,1.12-2.78,1.43-3.52.29-.76.58-1.48.82-2.07l.23-.57,1.31-3.55c.02-.07.05-.13.07-.2l2.63-7.31c.31-.87.69-1.7,1.13-2.49,2.13-6,4.18-12.2,6.1-18.41,2.15-6.99,4.27-14.51,6.29-22.36l.11-.62c.17-.97.43-1.9.76-2.8.54-2.15,1.06-4.31,1.57-6.46.79-4.29,1.59-9.08,2.37-14.24,2.2-14.53,4.32-32.1,5.66-47,.93-10.29,1.76-30.52,1.58-46.89-.12-1.36-.26-2.71-.4-4.06-3-27.71-10.14-54.44-21.83-81.72-.62-1.44-1.36-3.2-2.22-5.24-2.01-4.76-4.76-11.27-7.97-18.58-3.6-7.62-7.76-16.18-13.07-26.91-7.56-15.28-13.65-28.32-18.63-39.86-3.5-7.56-6.29-13.92-8.76-20.01-6.78-16.7-11.14-31.37-15.05-50.62-.85-4.2-1.57-8.66-2.04-12.66-.82-4.22-1.6-8.5-2.38-13.08-3.31-19.28-3.91-37.36-1.79-53.75.64-7.44,1.95-12.82,3.72-18.55.55-1.99,1.05-3.67,1.57-5.28,7.64-23.63,21.76-43.87,43.15-61.85,23.64-19.87,50.66-32.85,82.62-39.66,27.43-5.85,61.93-4.96,92.26,2.38,21.34,5.16,42.27,14.54,60.53,27.11,18.71,12.88,33.99,28.83,44.19,46.11,19.33,32.75,23.47,63.51,14.76,109.7-2.78,14.74-6.01,27.74-10.17,40.9-2.25,7.73-4.83,15.44-7.89,23.57-10.04,26.7-22.64,51.73-42.36,88.57-12.54,23.43-20.78,43.35-25.93,62.67-4.72,17.73-7.1,35.49-7.94,59.38-.88,24.82.86,46.22,6,73.84,1.62,8.72,4.43,22.66,7,33.35.97,3.64,1.97,7.22,2.97,10.65.36.94.64,1.9.85,2.85.36,1.23.73,2.45,1.11,3.69.21.58.39,1.16.54,1.75,1.79,5.76,3.66,11.47,5.59,16.98,2.94,8.44,8.22,21.47,13.79,34.01,4.79,10.79,9.6,20.82,12.62,26.28,1.08,1.79,2.13,3.4,2.91,4.58,1.75,2.67,3.72,5.68,3.88,10.34.24,3.21-.47,6.48-2.12,9.37-2.93,5.12-8.37,8.29-14.27,8.29ZM910.72,1140.86h178.79c-1.86-3.95-3.82-8.23-5.78-12.65-5.99-13.5-11.51-27.15-14.78-36.51-2.13-6.1-4.2-12.43-6.17-18.8-.03-.09-.06-.18-.08-.27-.05-.14-.09-.29-.14-.43-.56-1.83-1.11-3.65-1.64-5.47-.05-.18-.1-.35-.15-.53-.07-.22-.14-.44-.21-.66-1.16-3.96-2.31-8.1-3.43-12.3-.03-.12-.06-.25-.09-.37-2.74-11.35-5.71-26.08-7.41-35.25-5.61-30.15-7.51-53.62-6.54-81.02.92-26.14,3.71-46.7,9.03-66.68,5.82-21.84,14.94-44,28.72-69.72,21.97-41.04,32.21-62.4,40.57-84.63,2.78-7.4,5.12-14.38,7.15-21.36.04-.13.07-.25.11-.38,3.78-11.93,6.73-23.77,9.27-37.24,7.15-37.93,4.23-61.49-10.77-86.9h0c-7.79-13.19-19.72-25.55-34.52-35.74-14.99-10.32-32.14-18.01-49.62-22.24-25.4-6.14-55.16-6.98-77.68-2.18-26.93,5.74-48.63,16.12-68.32,32.67-16.53,13.9-27.33,29.2-33.02,46.8-.39,1.2-.78,2.52-1.22,4.15-.07.26-.15.52-.23.77,0,0,0,.01,0,.01-1.45,4.72-2.03,7.62-2.38,11.88-.02.27-.05.54-.09.81-1.75,13.21-1.23,28.1,1.55,44.27.78,4.56,1.56,8.81,2.37,12.99.09.44.15.89.2,1.34.21,1.86.7,5.69,1.66,10.42,3.48,17.12,7.33,30.1,13.29,44.79,2.29,5.64,4.9,11.59,8.22,18.74.06.14.13.28.19.42,4.76,11.05,10.64,23.64,17.99,38.49,5.45,11.01,9.71,19.8,13.42,27.65.06.13.12.27.18.4,3.35,7.61,6.18,14.32,8.25,19.22.83,1.97,1.56,3.68,2.15,5.08,13,30.33,20.95,60.14,24.3,91.13.19,1.75.36,3.5.52,5.26.04.42.06.85.07,1.27.24,18.19-.7,39.8-1.7,50.9-1.4,15.53-3.6,33.84-5.9,48.99-.86,5.67-1.74,10.95-2.62,15.69-.05.26-.1.52-.16.78-.71,3.01-1.45,6.01-2.21,9.02-.05.21-.11.42-.17.62-.05.22-.1.44-.15.66-2.2,8.57-4.51,16.8-6.87,24.46-2.06,6.68-4.26,13.34-6.56,19.79l-.15.42c-.14.4-.32.87-.49,1.33l-.3.81c-.3.82-.66,1.61-1.07,2.37l-1.9,5.29c-.06.16-.12.32-.18.48l-1.28,3.46c-.06.17-.13.33-.19.5l-.33.8c-.2.49-.44,1.1-.69,1.75-.08.21-.17.42-.26.63-.25.58-.57,1.36-1.17,2.87l-.99,2.5c-.04.11-.09.22-.14.33-2.67,6.33-5.42,12.45-8.25,18.32ZM1115.34,1140.35s-.02,0-.03,0c0,0,.02,0,.03,0ZM1062.07,1068.59h0s0,0,0,0ZM1061.41,1067.84h.01-.01ZM1093.66,1061.6c.05.12.1.24.14.36h0c-.04-.1-.1-.25-.14-.36ZM1060.46,1059.5s0,0,0,0c0,0,0,0,0,0ZM1060.46,1059.46s0,0,0,0c0,0,0,0,0,0ZM1060.47,1059.43s0,0,0,0c0,0,0,0,0,0Z"/>
    <path id="path100506" class="cls-2" d="M889.71,1145.95c11.3-21.13,21.11-45.18,29.24-71.57,8.04-26.09,14.15-53.61,17.61-78.75,3.47-25.24,2.89-69.33-1.13-91.81-3.08-17.26-7.08-32.49-13.93-50.72-7.13-18.97-16.28-38.59-30.69-67.71-14.47-29.25-23.58-50.25-30.47-70.58-6.77-20-11.05-38.55-14.92-61.13-4.45-25.95-3.71-49.18,2.94-69.73,6.67-20.63,19.21-38.46,38.08-54.33,21.94-18.45,46.28-29.94,75.47-36.16,25.13-5.36,57.06-4.47,84.97,2.28,19.6,4.74,38.75,13.43,55.08,24.67,16.43,11.32,30.13,25.3,39.36,40.93,17.2,29.14,20.66,56.43,12.77,98.3-3.93,20.84-9.11,39.75-17.87,61.94-9.54,24.17-20.41,45.68-39.71,83.32-10.41,20.3-17.43,35.85-22.56,50.08-5.12,14.19-8.41,27.19-11.28,42.83-4.89,26.59-5.54,55.93-1.9,87.7,3.63,31.65,11.56,65.94,23.72,100.8,3.16,9.07,8.63,22.51,14.28,35.26,5.62,12.66,11.15,24.05,14.29,29.38,1.25,2.13,3.75,6.37,3.75,6.37h-233.21c2.04-3.77,4.08-7.54,6.11-11.35h0Z"/>
    <g id="path100505">
      <path class="cls-1" d="M887.29,1150.77c5.86-9.88,13.09-25.36,20.04-43.13,6.97-17.8,13.38-37.22,17.82-54.04,11.69-44.4,15.84-80.49,13.95-115.89-1.31-24.55-4.13-44.1-10.91-66.3-6.97-22.81-17.33-46.15-34.13-80.1-15.86-32.06-25.2-53.07-32.39-73.89-7.03-20.36-11.5-39.33-16.42-65.06-1.1-5.73-1.98-19.81-1.94-31.19.05-17.25.64-22.67,3.6-32.25,7.16-23.2,20.89-43.4,39.86-59.47,18.82-15.94,42.91-27.87,70.16-34.64,10.63-2.64,19.05-3.72,33.38-4.25,37.9-1.39,69.26,5.86,100.27,22.85,23.08,12.65,46.53,37.12,56.69,59.7,11.61,25.77,13.42,48.6,6.81,84.85-3.46,19.02-8.33,37.11-15.96,57.33-7.92,20.99-17.79,41.85-32.79,71.05-12.44,24.22-19.45,38.63-24.31,49.72-4.75,10.82-7.35,18.28-10.43,28.24-9.94,32.14-11.88,46.38-11.81,82.92.04,19.64.93,37.7,2.27,46.12,6.9,43.27,17.58,81.8,34.88,122.22,5.68,13.28,11.75,26.19,13.76,29.64,1.94,3.34,4.03,7.44,4.63,9.09.37,1.01,1.1,3.01,1.1,3.01h-231.99c1.3-2.17,2.59-4.35,3.89-6.53h0Z"/>
    </g>
    <path id="path100504" class="cls-4" d="M885.03,1156.69c0-.33,2.93-6.19,6.49-13.12,6.27-12.19,14.22-30.25,22.48-52.12,2.43-6.43,6.43-20.03,10.34-34.91,3.88-14.74,7.52-30.19,9.09-38.86,6.01-33.18,7.33-64.46,4.09-94.34-3.25-30.04-11.02-58.32-23.07-86.43-3.81-8.89-12.54-30.24-23.5-52.57-12.58-25.65-20.65-41.99-27.03-57.72-6.23-15.36-10.4-29.13-14.17-47.71-1.86-9.17-2.56-17.44-2.11-17.89.45-.46.83-.12.82.76-.01,4.29,10.13,22.62,16.97,30.1,8.62,9.43,21.83,19.58,24.09,19,.75-.19,3.49-2.64,6.09-5.4,7.58-8.04,13.59-11.42,24.82-13.85,21.98-4.77,37.77,5.81,35.91,22.49-.33,2.95-.48,5.37-.34,5.35,1.01-.16,8.79-12.94,15.15-24.34,20.1-36.07,47.59-60.5,84.61-78.94,10.88-5.42,24.74-11.39,38.41-17.01,13.11-5.39,27.79-11.16,37.56-14.48,19.59-6.66,18.43-7.5,22.6,7.54,4.66,16.81,4.64,38.72-.11,64.81-3.55,19.48-8.4,37.69-16.03,57.98-7.92,21.06-17.8,41.93-32.89,71.31-12.44,24.22-19.45,38.63-24.31,49.72-4.75,10.82-7.35,18.28-10.43,28.24-10.05,32.5-11.91,46.31-11.79,83.67.06,19.44.96,38.12,2.18,45.37,5.11,30.33,10.06,51.67,19.78,83.3,2.1,6.84,7.54,20.8,13.47,34.72,5.96,14.01,12.07,27.2,15.73,34.09,3.08,5.81,6.84,10.94,6.84,11.27,0,.33-53.38.59-116.67.59s-115.07-.27-115.07-.61h0"/>
    <g id="path100503">
      <path class="cls-7" d="M903.8,1117.29c0-.25,1.11-3.39,2.46-7.01.82-2.2,2.46-6.62,2.46-6.62,16.85-.42,36.2-.87,56.88-1.13,18.98-.24,34.17-.24,34.17-.24,17.39-.02,35.79.12,56.96.49,18.98.33,34.16.74,34.16.74.71,1.79,2.12,5.34,2.12,5.34,1.19,2.98,2.43,6.04,2.85,7.06.58,1.39-19.2.92-95.69.96-53.04.03-96.38.66-96.38.42h0ZM922.22,1065.23c0-.34,1.71-6.83,3.8-14.53,5.21-19.16,10.53-49.74,12.6-71.83,1.57-16.84.72-52.73-1.63-70.25-1.53-11.44,3.4,7.71,8.87,35.49,3.93,19.98,6.73,42.88,7.99,62.23,1.26,19.36.96,34.94-1.26,40.73-.38,1,1.23,1.44,9.27,1.41,8.04-.03,22.51-.68,47.86-.49,31.93.24,58.03,1.77,58.03,1.27,0-.5-3.56-4.79-7.92-9.59-15.02-16.53-29.14-40.7-42.08-70.72-12.82-29.75-24.35-65-33.41-101.45-4.11-16.54-4.58-20.92-4.7-47.6-.11-24.66.44-30.99,3.64-44.15,6.54-26.88,19.54-53.9,37.47-77.76,18.07-24.06,40.13-43.72,65.52-61.48,4.73-3.31,8.31-6.33,7.97-6.65-.34-.31-4.99.76-10.34,2.37-13.89,4.18-30.65,11.24-48.67,21.45-18.08,10.24-39.24,24.64-62.07,45.66-3.77,3.47-6.85,5.92-6.85,5.3.01-1.17,3.25-7.25,7.49-14.19,4.32-7.08,9.39-14.6,13.46-19.81,12.59-16.1,26.39-28.84,43.34-39.99,17.4-11.45,36.75-20.44,62.67-31.2,10.01-4.16,30.87-12.2,38.48-14.78,19.59-6.66,18.43-7.5,22.6,7.54,4.66,16.81,4.64,38.72-.11,64.81-3.55,19.48-8.4,37.69-16.03,57.98-7.92,21.06-17.8,41.93-32.89,71.31-12.44,24.22-19.45,38.63-24.31,49.72-4.75,10.82-7.35,18.28-10.43,28.24-9.94,32.14-11.88,46.38-11.81,82.92.04,19.64.93,37.7,2.27,46.12,3.21,20.12,9.34,48.41,13.06,60.24,1.75,5.56,3.18,10.48,3.18,11,0,.52-34.89-1.42-77.58-1.29-21.71.06-40.36.66-54.76,1.2-14.03.53-22.72.92-22.72.74ZM934.69,898.88c-.02-1.99.33-2.88.78-1.97.45.9.46,2.54.03,3.62-.43,1.09-.8.34-.82-1.65ZM904.39,760.7c-19.97,1.7-31.95-15.83-23.18-34.3,4.2-8.84,6.23-9.68,4.42-2.32-2.18,8.87,1.34,16.54,8.11,21.05,6.81,4.54,16.86,5.9,27.92,2.94,5.54-1.48,18.02-8.45,22.64-12.6,3.02-2.72,2.95-2.57.42,1.8-2.49,4.3-9.35,10.63-16.29,15.25-4.55,3.03-18.15,7.67-24.03,8.17Z"/>
    </g>
    <path id="path100502" class="cls-5" d="M904.61,1114.59c.59-1.71,1.67-4.6,2.38-6.33.43-1.06,1.3-3.19,1.3-3.19,16.86-.4,36.24-.83,56.93-1.08,19-.23,34.2-.24,34.2-.24,17.4-.02,35.82.11,57.01.46,19,.32,34.18.7,34.18.7.84,1.91,2.53,5.72,2.53,5.72,1.39,3.13,2.53,5.97,2.53,6.34,0,.37-43.23-.15-96.09-.11-32.04.02-96.05.87-96.05.87,0,0,1.08-3.15,1.08-3.15h0ZM922.82,1061.8c2.59-6.33,5.34-20.21,7.78-36.28,2.43-16,4.53-34.06,5.78-48,1.47-16.36,2.66-54.98.44-69.61-1.78-11.71,3.98,11.42,8.85,36.22,4.16,21.17,6.98,44.81,8.11,64.32,1.13,19.53.54,34.73-2.07,39.63-.75,1.4-1.06,6.24,5.91,10.5,7.16,4.37,21.11,7.83,49.84,7.93,16.22.06,32.25-3.34,43.7-6.87,11.53-3.56,18.72-7.36,17.65-8.6-.24-.28-3.99-5.13-8.87-10.64-15.61-17.6-29.83-41.82-42.69-71.62-12.77-29.58-24.08-64.41-33.21-101.25-4.1-16.54-4.57-20.91-4.68-47.6-.11-24.66.44-30.99,3.63-44.16,6.67-27.49,19.66-54.55,37.97-78.61,18.59-24.43,41.2-44.13,68.48-63.52,3.51-2.5,6.34-3.73,6.33-2.72,0,1.01-1.12,8.27-2.48,16.11-3.25,18.69-3.71,42.83-.9,51.35,2.5,7.58,7.63,12.44,12.45,11.62,8.88-1.51,19.86-11.02,33.72-31.28,13.83-20.22,14.31-21.22,13.29-14.32-2.46,16.59-6.59,34.43-15.05,56.93-9.17,24.37-20.66,47.74-41.47,86.6-13.37,24.98-21.9,45.85-27.32,66.2-5.4,20.29-7.67,39.91-8.49,63.03-.92,26.17.93,48.71,6.27,77.43,2.91,15.63,8.14,40.47,10.82,46.97.59,1.43-1.2,1.76-16.31,1.34-7.08-.2-33.86-1.25-60.94-1.16-36.71.12-56.07,1.43-66.15,1.64-10.08.2-10.88-.36-10.38-1.59h0ZM934.4,898.1c.06-1.7.43-2.12.95-1.07.47.95.42,2.21-.1,2.8-.52.59-.9-.19-.85-1.73,0,0,0,0,0,0ZM904.32,760.72c-19.91,1.68-31.86-15.86-23.12-34.32,4.19-8.84,6.21-9.68,4.41-2.31-2.17,8.87,1.33,16.54,8.09,21.06,6.79,4.54,16.81,5.91,27.84,2.96,5.53-1.48,17.96-8.44,22.58-12.59,3.01-2.72,2.94-2.57.41,1.8-2.48,4.3-9.32,10.63-16.25,15.25-4.54,3.03-18.09,7.66-23.96,8.16Z"/>
    <g id="path100501">
      <path class="cls-9" d="M904.8,1113.68c1.44-3.64,1.54-3.67,2.26-5.42,1.48-4.06,4.43-12.27,4.43-12.27,16.46-.31,35.14-.6,55.34-.65,18.47-.05,33.25.15,33.25.15,16.59-.38,34.37-.62,54.59-.62,18.19,0,32.73.18,32.73.18,2.11,5.26,6.33,15.6,6.33,15.6,1.3,3.17,2.54,5.97,2.54,6.34s-43.35-.15-96.36-.12c-32.27.02-96.72.87-96.72.87.54-1.35,1.07-2.71,1.61-4.07h0ZM920.29,1069.89c.55-1.39,3.83-11.73,4.36-13.83.39-2.2,1.18-6.62,1.18-6.62,13.86-1.1,29.66-2.19,46.71-2.88,15.6-.63,28.1-.71,28.1-.71,13.58-.33,28.34-.38,44.91.05,14.96.38,26.92,1.03,26.92,1.03.77,2.9,2.31,8.68,2.31,8.68.55,2.06,3.13,10.87,3.68,12.22.44,1.08-1.68,1.55-12.73,1.41-11.05-.14-31.05-1.14-66.37-1.03-31.84.09-58.77,1.81-66.32,2.22-11.04.6-13.16.54-12.74-.53h0Z"/>
    </g>
  </g>
  <g>
    <path d="M697.87,118.12h529.39c41.32,0,74.87,33.55,74.87,74.87v74.05c0,41.32-33.55,74.87-74.87,74.87h-454.52c-41.32,0-74.87-33.55-74.87-74.87V118.12h0Z"/>
    <g>
      <path class="cls-3" d="M772.74,328.65c-33.97,0-61.61-27.64-61.61-61.61v-135.66h516.12c33.97,0,61.61,27.64,61.61,61.61v74.05c0,33.97-27.64,61.61-61.61,61.61h-454.51Z"/>
      <path class="cls-6" d="M1227.26,144.65c26.66,0,48.34,21.69,48.34,48.34v74.05c0,26.66-21.69,48.34-48.34,48.34h-454.52c-26.66,0-48.34-21.69-48.34-48.34v-122.39h502.86M1227.26,118.12h-529.39v148.92c0,41.35,33.52,74.87,74.87,74.87h454.52c41.35,0,74.87-33.52,74.87-74.87v-74.05c0-41.35-33.52-74.87-74.87-74.87h0Z"/>
    </g>
    <path class="cls-8" d="M1097.44,167.35c-2.42-.85-5.6-1.07-9.5.51,1.75,1.69,3.36,4.03,4.62,7.29.31-.06.62-.09.9-.09.43,0,.83.06,1.2.19,6.5,2.28,8.42,27-3.36,60.55-5.38,15.32-12.41,28.96-19.8,38.42-3.67,4.7-6.88,7.64-9.49,9.31-3.4,3.93-6.75,6.93-10.04,8.98.44.22.89.41,1.32.56,1.14.4,2.45.66,3.92.66,5.07,0,12.09-3.1,20.89-14.35,7.94-10.16,15.43-24.65,21.1-40.8h0c5.67-16.15,8.88-32.15,9.03-45.04.22-18.44-5.75-24.42-10.81-26.19Z"/>
    <path class="cls-8" d="M1081.84,166.95c-5.05-1.77-13.46-.84-24.81,13.69-2.71,3.47-5.37,7.47-7.93,11.85,2.99-.79,6.13-1.22,9.37-1.22.42,0,.84,0,1.26.02,7.19-10.82,14.05-16.63,18.14-16.63.43,0,.83.06,1.2.19,6.5,2.28,8.42,27-3.36,60.55-5.38,15.32-12.41,28.96-19.8,38.42-7.4,9.48-12.94,11.82-15.43,10.94-2.49-.87-5.35-6.16-5.2-18.19.04-3.22.3-6.67.74-10.27-.77-.6-1.51-1.23-2.22-1.89-1.9-1.61-3.63-3.41-5.16-5.38-1.07,6.21-1.67,12.09-1.73,17.44-.22,18.44,5.75,24.42,10.81,26.19,1.14.4,2.45.66,3.92.66,5.07,0,12.09-3.1,20.89-14.35,7.94-10.16,15.43-24.65,21.1-40.8h0c5.67-16.15,8.88-32.15,9.03-45.04.22-18.44-5.75-24.42-10.81-26.19Z"/>
    <path class="cls-8" d="M1073.51,194.53c2.59-4.17,5.16-7.71,7.6-10.58-.77-4.44-2.09-6.44-2.88-6.72-.09-.03-.22-.05-.36-.05-.63,0-1.66.32-3.03,1.16-.72.84-1.46,1.74-2.21,2.7-2.51,3.21-4.97,6.88-7.35,10.87,2.88.55,5.64,1.43,8.23,2.61Z"/>
    <path class="cls-8" d="M1050.87,266.98c.01-1.19.07-2.42.14-3.67-2.87-.6-5.62-1.54-8.21-2.77-.17,2.18-.28,4.3-.31,6.34-.07,6.2.55,10.99,1.61,14.69,1.72-.93,4.17-2.76,7.25-6.2-.34-2.33-.52-5.1-.48-8.38Z"/>
    <path class="cls-6" d="M1070.09,212.85c-3.21.92-6.57,1.44-10,1.55v11.84h12.88c-.17-4.64-1.13-9.14-2.87-13.39Z"/>
    <path class="cls-6" d="M1061.12,195.47l-.23.18c4.57,3.85,8.18,8.47,10.74,13.76,3.25-1.15,6.29-2.68,9.04-4.56l.46-.35c-5.41-5.26-12.5-8.46-20.02-9.03Z"/>
    <path class="cls-6" d="M1060.08,198.68v12.91c3.02-.11,5.98-.55,8.83-1.33-2.18-4.38-5.14-8.27-8.83-11.58Z"/>
    <path class="cls-6" d="M1056.24,195.47c-7.52.57-14.62,3.78-20.04,9.04l.49.34c2.75,1.89,5.8,3.42,9.04,4.56,2.56-5.28,6.17-9.91,10.74-13.76l-.23-.18Z"/>
    <path class="cls-6" d="M1048.45,210.26c2.85.78,5.82,1.22,8.83,1.33v-12.91c-3.68,3.3-6.64,7.2-8.83,11.58Z"/>
    <path class="cls-6" d="M1041.61,229.04h-15.16c.3,7,2.8,13.55,7.24,18.99l.74-.55c2.98-2.13,6.28-3.87,9.8-5.17-1.59-4.24-2.47-8.7-2.62-13.27Z"/>
    <path class="cls-6" d="M1035.11,207.16l-.85-.58c-4.73,5.48-7.49,12.43-7.8,19.65h15.16c.16-4.97,1.17-9.75,2.99-14.25-3.41-1.22-6.61-2.84-9.49-4.82Z"/>
    <path class="cls-6" d="M1047.28,212.85c-1.74,4.25-2.71,8.75-2.87,13.39h12.87v-11.84c-3.42-.12-6.79-.64-10-1.55Z"/>
    <path class="cls-6" d="M1045.3,244.89c-3.32,1.22-6.42,2.85-9.22,4.84l-.52.39c5.43,5.59,12.66,9.01,20.38,9.66l.39-.28c-4.76-4.06-8.47-8.97-11.04-14.61Z"/>
    <path class="cls-6" d="M1044.41,229.04c.16,4.27.99,8.43,2.48,12.37,3.34-.98,6.83-1.54,10.39-1.66v-10.71h-12.87Z"/>
    <path class="cls-6" d="M1047.98,244.02c2.23,4.8,5.35,9.02,9.3,12.58v-14.04c-3.17.11-6.3.6-9.3,1.46Z"/>
    <path class="cls-6" d="M1060.08,229.04v10.71c3.56.12,7.06.68,10.4,1.66,1.49-3.95,2.32-8.11,2.47-12.37h-12.88Z"/>
    <path class="cls-6" d="M1060.08,242.56v14.05c3.96-3.56,7.09-7.79,9.31-12.58-3-.86-6.13-1.35-9.31-1.46Z"/>
    <path class="cls-6" d="M845.46,198.22h37.76c.94,0,1.41.4,1.41,1.2,0,.11-.03.3-.08.58l-2.15,10.16c-.25,1.16-.95,1.74-2.11,1.74h-24.17l-2.6,12.23h17.72c.96,0,1.45.4,1.45,1.2,0,.11-.03.3-.08.58l-2.02,9.63c-.25,1.16-.95,1.74-2.11,1.74h-17.72l-3.88,18.14c-.25,1.16-.94,1.74-2.07,1.74h-11.86c-.99,0-1.49-.4-1.49-1.2,0-.08.03-.26.08-.54l11.78-55.41c.25-1.18.96-1.78,2.15-1.78Z"/>
    <path class="cls-6" d="M875.86,199.99c-.05-.14-.08-.32-.08-.54,0-.39.14-.69.43-.91.29-.22.68-.33,1.18-.33h12.15c.55,0,.96.14,1.24.41.27.28.51.73.7,1.36l5.83,19.17,13.59-19.17c.44-.63.87-1.09,1.3-1.36.43-.27.92-.41,1.47-.41h14.38c.77,0,1.16.25,1.16.74,0,.3-.15.65-.45,1.03l-25.86,33.05-4.75,22.35c-.25,1.16-.94,1.74-2.07,1.74h-11.86c-.99,0-1.49-.4-1.49-1.2,0-.08.03-.26.08-.54l4.75-22.27-11.69-33.14Z"/>
    <path class="cls-6" d="M927.51,198.75c.37-.36.83-.54,1.38-.54h25.49c3.2,0,5.98.74,8.35,2.23,2.37,1.49,4.19,3.47,5.45,5.95,1.27,2.48,1.9,5.19,1.9,8.14,0,1.24-.1,2.4-.29,3.47-.63,3.64-2.14,6.86-4.52,9.67-2.38,2.81-5.26,5-8.62,6.57l6.86,21.15c.05.22.08.37.08.45,0,.36-.12.66-.37.91-.25.25-.59.37-1.03.37h-13.06c-.55,0-.94-.11-1.18-.33-.23-.22-.45-.66-.64-1.32l-5.58-17.93h-7.64l-3.8,17.85c-.25,1.16-.94,1.74-2.07,1.74h-11.86c-.96,0-1.45-.39-1.45-1.16,0-.11.03-.3.08-.58l11.78-55.41c.11-.47.35-.88.72-1.24ZM936.82,224.87h9.21c1.35,0,2.63-.34,3.84-1.01,1.21-.67,2.24-1.56,3.08-2.66.84-1.1,1.38-2.26,1.63-3.47.11-.47.16-1.01.16-1.61,0-1.57-.46-2.9-1.38-3.99-.92-1.09-2.23-1.63-3.9-1.63h-9.63l-3.02,14.38Z"/>
    <path class="cls-6" d="M997.26,198.69c.39-.32.83-.48,1.32-.48h11.86c.94,0,1.4.4,1.4,1.2,0,.11-.03.3-.08.58l-9.13,43.09h21.98c.96,0,1.45.39,1.45,1.16,0,.11-.03.3-.08.58l-2.27,10.58c-.25,1.16-.94,1.74-2.07,1.74h-35.57c-.96,0-1.45-.39-1.45-1.16,0-.11.03-.3.08-.58l11.78-55.41c.14-.55.4-.98.78-1.3Z"/>
    <path class="cls-6" d="M1115.49,198.22h11.86c.94,0,1.41.4,1.41,1.2,0,.11-.03.3-.08.58l-11.77,55.41c-.25,1.16-.94,1.74-2.07,1.74h-11.86c-.99,0-1.49-.4-1.49-1.2,0-.08.03-.26.08-.54l11.78-55.41c.25-1.18.96-1.78,2.15-1.78Z"/>
    <path class="cls-6" d="M1117.59,247.03c0-.59.36-1.18,1.08-1.78l7.46-6.51c.47-.39.93-.59,1.37-.59.53,0,1.07.31,1.63.93,1.2,1.27,2.26,2.32,3.19,3.15.93.83,2.05,1.57,3.35,2.22,1.31.65,2.71.97,4.21.97,4.64,0,7.38-1.89,8.21-5.66.03-.14.04-.35.04-.63,0-1.3-.65-2.35-1.96-3.17-1.31-.82-2.99-1.62-5.04-2.41-5.31-2.03-9.28-4.35-11.92-6.95-2.64-2.61-3.96-5.71-3.96-9.32,0-.99.14-2.18.42-3.59.72-3.35,2.13-6.29,4.21-8.81,2.08-2.52,4.77-4.47,8.06-5.83,3.29-1.37,7.05-2.05,11.27-2.05,3.56,0,7.06.78,10.5,2.32,3.45,1.55,6.21,3.55,8.29,6,.36.45.54.9.54,1.35,0,.76-.47,1.55-1.42,2.37l-6.46,6.04c-.53.42-1,.63-1.42.63-.58,0-1.21-.37-1.87-1.1-.53-.62-1.31-1.25-2.35-1.9-1.04-.65-2.12-1.21-3.23-1.69-1.03-.39-2.29-.59-3.79-.59-1.72,0-3.26.32-4.6.97-1.35.65-2.17,1.68-2.48,3.09-.06.34-.08.58-.08.72,0,.79.31,1.49.94,2.09.62.61,1.49,1.16,2.58,1.65,1.1.49,2.62,1.08,4.56,1.75,3.3,1.21,6.06,2.5,8.25,3.87,2.19,1.37,3.9,3.01,5.13,4.92,1.22,1.92,1.83,4.21,1.83,6.89,0,1.44-.15,2.86-.46,4.27-.81,3.92-2.37,7.27-4.69,10.06-2.32,2.79-5.25,4.92-8.79,6.38-3.54,1.47-7.54,2.2-11.98,2.2-2.64,0-5.22-.46-7.73-1.39-2.51-.93-4.81-2.18-6.88-3.76-2.07-1.58-3.81-3.34-5.23-5.28-.53-.76-.79-1.37-.79-1.82Z"/>
    <path class="cls-6" d="M1075.76,226.23h.28c1.81-6.11,3.22-12.1,4.18-17.77-2.34,1.4-4.83,2.58-7.44,3.51,1.82,4.51,2.82,9.31,2.99,14.25Z"/>
  </g>
</svg>